<?xml version="1.0" standalone="no"?>
<!DOCTYPE svg PUBLIC "-//W3C//DTD SVG 20010904//EN"
 "http://www.w3.org/TR/2001/REC-SVG-20010904/DTD/svg10.dtd">
<svg version="1.0" xmlns="http://www.w3.org/2000/svg"
 width="40.000000pt" height="40.000000pt" viewBox="0 0 40.000000 40.000000"
 preserveAspectRatio="xMidYMid meet">
<symbol id="disceta">
<g transform="translate(0.000000,40.000000) scale(0.100000,-0.100000)"
fill="currentColor" stroke="none">
<path d="M4 387 c-2 -7 -3 -96 -2 -197 l3 -185 195 0 195 0 3 158 3 159 -40
39 -39 39 -156 0 c-118 0 -158 -3 -162 -13z m58 -84 l3 -58 120 0 120 0 3 58
c2 31 5 57 7 57 3 0 14 -9 25 -20 18 -18 20 -33 20 -160 0 -82 -4 -140 -10
-140 -5 0 -10 33 -12 73 l-3 72 -135 0 -135 0 -3 -73 c-2 -39 -7 -72 -12 -72
-6 0 -10 65 -10 160 0 94 4 160 10 160 5 0 10 -26 12 -57z m148 17 l0 -40 -55
0 -55 0 0 40 0 40 55 0 55 0 0 -40z m60 0 c0 -22 -4 -40 -10 -40 -5 0 -10 18
-10 40 0 22 5 40 10 40 6 0 10 -18 10 -40z m30 -225 l0 -55 -100 0 -100 0 0
55 0 55 100 0 100 0 0 -55z"/>
</g>
</symbol>
</svg>